<?xml version="1.0" encoding="UTF-8" standalone="no"?>
<!DOCTYPE svg PUBLIC "-//W3C//DTD SVG 1.1//EN" "http://www.w3.org/Graphics/SVG/1.1/DTD/svg11.dtd">
<svg width="100%" height="100%" viewBox="0 0 16 16" version="1.1" xmlns="http://www.w3.org/2000/svg" xmlns:xlink="http://www.w3.org/1999/xlink" xml:space="preserve" xmlns:serif="http://www.serif.com/" style="fill-rule:evenodd;clip-rule:evenodd;stroke-linejoin:round;stroke-miterlimit:2;">
    <g id="anchor">
        <g transform="matrix(1,0,0,1,2.52557,0.21164)">
            <path d="M10.631,-0.189C12.184,-0.189 13.444,1.072 13.444,2.624C13.444,4.177 12.184,5.437 10.631,5.437C9.079,5.437 7.818,4.177 7.818,2.624C7.818,1.072 9.079,-0.189 10.631,-0.189ZM10.631,0.811C9.631,0.811 8.818,1.624 8.818,2.624C8.818,3.625 9.631,4.437 10.631,4.437C11.632,4.437 12.444,3.625 12.444,2.624C12.444,1.624 11.632,0.811 10.631,0.811Z" style="fill:white;"/>
        </g>
        <g transform="matrix(1.89681,0.485249,-0.485249,1.89681,3.17472,-9.82685)">
            <path d="M1.376,6.554L2.046,7.894L0.705,7.894L1.376,6.554Z" style="fill:white;"/>
        </g>
        <g transform="matrix(1.89681,0.485249,-0.485249,1.89681,3.17472,-9.82685)">
            <path d="M1.625,6.429L2.295,7.769C2.339,7.856 2.334,7.959 2.283,8.041C2.232,8.123 2.143,8.173 2.046,8.173L0.705,8.173C0.609,8.173 0.519,8.123 0.468,8.041C0.417,7.959 0.413,7.856 0.456,7.769L1.126,6.429C1.173,6.335 1.27,6.275 1.376,6.275C1.481,6.275 1.578,6.335 1.625,6.429ZM1.376,6.554L0.705,7.894L2.046,7.894L1.376,6.554Z" style="fill:white;"/>
        </g>
        <path d="M3.158,9.518L10.946,3.963L12.07,4.988L5.963,12.985L3.781,11.513L3.158,9.518Z" style="fill:white;"/>
        <g transform="matrix(0.50674,1.89118,-1.89118,0.50674,24.5133,7.32499)">
            <path d="M1.376,6.554L2.046,7.894L0.705,7.894L1.376,6.554Z" style="fill:white;"/>
        </g>
        <g transform="matrix(0.50674,1.89118,-1.89118,0.50674,24.5133,7.32499)">
            <path d="M1.625,6.429L2.295,7.769C2.339,7.856 2.334,7.959 2.283,8.041C2.232,8.123 2.143,8.173 2.046,8.173L0.705,8.173C0.609,8.173 0.519,8.123 0.468,8.041C0.417,7.959 0.413,7.856 0.456,7.769L1.126,6.429C1.173,6.335 1.27,6.275 1.376,6.275C1.481,6.275 1.578,6.335 1.625,6.429ZM1.376,6.554L0.705,7.894L2.046,7.894L1.376,6.554Z" style="fill:white;"/>
        </g>
        <g transform="matrix(1,0,0,1,0.0282187,-0.747795)">
            <path d="M0.743,7.168C0.743,6.616 1.191,6.168 1.743,6.168C2.294,6.168 2.743,6.616 2.743,7.168C2.743,9.087 4.17,13.977 9.552,13.977C10.104,13.977 10.552,14.425 10.552,14.977C10.552,15.529 10.104,15.977 9.552,15.977C2.589,15.977 0.743,9.65 0.743,7.168Z" style="fill:white;"/>
        </g>
    </g>
</svg>
