<?xml version="1.0" encoding="UTF-8" standalone="no"?>
<!DOCTYPE svg PUBLIC "-//W3C//DTD SVG 1.1//EN" "http://www.w3.org/Graphics/SVG/1.1/DTD/svg11.dtd">
<svg width="100%" height="100%" viewBox="0 0 16 16" version="1.1" xmlns="http://www.w3.org/2000/svg" xmlns:xlink="http://www.w3.org/1999/xlink" xml:space="preserve" xmlns:serif="http://www.serif.com/" style="fill-rule:evenodd;clip-rule:evenodd;stroke-linejoin:round;stroke-miterlimit:2;">
    <path d="M2,4C2,4 2.05,2 4,2L11.005,2C11.614,2 11.714,1.97 11.88,2.139C12.046,2.307 12,3.013 12,3.013L12,12L6,12C3.772,13.26 3.391,17.037 6,13L14,13C14,13 13.959,15 12,15L4.506,15C4.187,15 4.147,14.987 4.063,14.904C3.979,14.821 4,14.502 4,14.502L4,5L8,5C12.246,5.029 12.801,0.37 10,4L2,4ZM9.081,10.304C9.081,10.136 8.945,10 8.777,10L8.169,10C8.001,10 7.865,10.136 7.865,10.304L7.865,10.922C7.865,11.089 8.001,11.226 8.169,11.226L8.777,11.226C8.945,11.226 9.081,11.089 9.081,10.922L9.081,10.304ZM7,5.898C6.968,5.898 6.939,5.913 6.92,5.938C6.9,5.963 6.894,5.995 6.902,6.026L7.857,9.647C7.868,9.691 7.909,9.722 7.955,9.722L8.955,9.722C9.01,9.722 9.056,9.678 9.056,9.622L9.102,6.001C9.102,5.974 9.091,5.948 9.072,5.929C9.053,5.909 9.027,5.898 9,5.898L7,5.898Z" style="fill:white;"/>
</svg>
