<?xml version="1.0" encoding="UTF-8" standalone="no"?>
<!DOCTYPE svg PUBLIC "-//W3C//DTD SVG 1.1//EN" "http://www.w3.org/Graphics/SVG/1.1/DTD/svg11.dtd">
<svg width="100%" height="100%" viewBox="0 0 16 16" version="1.1" xmlns="http://www.w3.org/2000/svg" xmlns:xlink="http://www.w3.org/1999/xlink" xml:space="preserve" xmlns:serif="http://www.serif.com/" style="fill-rule:evenodd;clip-rule:evenodd;stroke-linejoin:round;stroke-miterlimit:2;">
    <path d="M2,4C2,4 2.05,2 4,2L11.005,2C11.614,2 11.714,1.97 11.88,2.139C12.046,2.307 12,3.013 12,3.013L12,12L6,12C3.772,13.26 3.391,17.037 6,13L14,13C14,13 13.959,15 12,15L4.506,15C4.187,15 4.147,14.987 4.063,14.904C3.979,14.821 4,14.502 4,14.502L4,5L8,5C12.246,5.029 12.801,0.37 10,4L2,4ZM11,10.25C11,10.112 10.888,10 10.75,10L5.25,10C5.112,10 5,10.112 5,10.25L5,10.75C5,10.888 5.112,11 5.25,11L10.75,11C10.888,11 11,10.888 11,10.75L11,10.25ZM10,8.25C10,8.112 9.888,8 9.75,8L5.25,8C5.112,8 5,8.112 5,8.25L5,8.75C5,8.888 5.112,9 5.25,9L9.75,9C9.888,9 10,8.888 10,8.75L10,8.25ZM11,6.25C11,6.112 10.888,6 10.75,6L5.25,6C5.112,6 5,6.112 5,6.25L5,6.75C5,6.888 5.112,7 5.25,7L10.75,7C10.888,7 11,6.888 11,6.75L11,6.25Z" style="fill:white;"/>
</svg>
