<?xml version="1.0" encoding="UTF-8" standalone="no"?>
<!DOCTYPE svg PUBLIC "-//W3C//DTD SVG 1.1//EN" "http://www.w3.org/Graphics/SVG/1.1/DTD/svg11.dtd">
<svg width="100%" height="100%" viewBox="0 0 16 16" version="1.1" xmlns="http://www.w3.org/2000/svg" xmlns:xlink="http://www.w3.org/1999/xlink" xml:space="preserve" xmlns:serif="http://www.serif.com/" style="fill-rule:evenodd;clip-rule:evenodd;stroke-linejoin:round;stroke-miterlimit:2;">
    <g id="erase" transform="matrix(0.140759,0.115442,-0.138575,0.168966,20.4451,-96.4052)">
        <path d="M291.412,433L291.412,407C291.412,406.269 292.123,405.677 293,405.677L329,405.677C329.877,405.677 330.588,406.269 330.588,407L330.588,433C330.588,436.538 327.538,439.323 324,439.323L298,439.323C294.462,439.323 291.412,436.538 291.412,433ZM293,433C293,435.75 295.25,438 298,438L324,438C326.75,438 329,435.75 329,433L329,407L293,407L293,433Z" style="fill:rgb(211,215,217);"/>
        <path d="M330.411,385L330.411,407C330.411,407.649 329.779,408.176 329,408.176L293,408.176C292.221,408.176 291.589,407.649 291.589,407L291.589,385C291.589,381.55 294.55,378.824 298,378.824L324,378.824C327.45,378.824 330.411,381.55 330.411,385ZM329,385C329,382.25 326.75,380 324,380L298,380C295.25,380 293,382.25 293,385L293,407L329,407L329,385Z" style="fill:rgb(211,215,217);"/>
        <path d="M298,376L324,376C326.75,376 329,378.25 329,381L329,379C329,376.25 326.75,374 324,374L298,374C295.25,374 293,376.25 293,379L293,381C293,378.25 295.25,376 298,376Z" style="fill:rgb(236,242,244);fill-rule:nonzero;"/>
        <path d="M298,380L324,380C326.75,380 329,382.25 329,385L329,383C329,380.25 326.75,378 324,378L298,378C295.25,378 293,380.25 293,383L293,385C293,382.25 295.25,380 298,380Z" style="fill:rgb(236,242,244);fill-rule:nonzero;"/>
        <path d="M293,429C293,431.75 295.25,434 298,434L324,434C326.75,434 329,431.75 329,429L329,407L293,407L293,429Z" style="fill:rgb(236,242,244);fill-rule:nonzero;"/>
    </g>
</svg>
