<?xml version="1.0" encoding="UTF-8" standalone="no"?>
<!DOCTYPE svg PUBLIC "-//W3C//DTD SVG 1.1//EN" "http://www.w3.org/Graphics/SVG/1.1/DTD/svg11.dtd">
<svg width="100%" height="100%" viewBox="0 0 16 16" version="1.1" xmlns="http://www.w3.org/2000/svg" xmlns:xlink="http://www.w3.org/1999/xlink" xml:space="preserve" xmlns:serif="http://www.serif.com/" style="fill-rule:evenodd;clip-rule:evenodd;stroke-linejoin:round;stroke-miterlimit:2;">
    <g id="Wait">
        <path d="M5.884,8.091L1,3.207L1,1L15,1L15,3.207L10.116,8.091L15,12.975L15,15.182L1,15.182L1,12.975L5.884,8.091ZM9.318,8.707L9.318,7.475L14,2.793L14,2L2,2L2,2.793L6.682,7.475L6.682,8.707L2,13.389L2,14.182L14,14.182L14,13.389L9.318,8.707Z" style="fill:rgb(235,235,235);"/>
        <path d="M13,14L3,14L3,13L7,11L9,11L13,13L13,14Z" style="fill:rgb(235,235,235);"/>
        <rect x="7" y="9" width="2" height="1" style="fill:rgb(235,235,235);"/>
        <path d="M7,7L6,6L10,6L9,7L9,8L7,8L7,7Z" style="fill:rgb(235,235,235);"/>
    </g>
</svg>
