<?xml version="1.0" encoding="UTF-8" standalone="no"?>
<!DOCTYPE svg PUBLIC "-//W3C//DTD SVG 1.1//EN" "http://www.w3.org/Graphics/SVG/1.1/DTD/svg11.dtd">
<svg width="100%" height="100%" viewBox="0 0 16 16" version="1.1" xmlns="http://www.w3.org/2000/svg" xmlns:xlink="http://www.w3.org/1999/xlink" xml:space="preserve" xmlns:serif="http://www.serif.com/" style="fill-rule:evenodd;clip-rule:evenodd;stroke-linejoin:round;stroke-miterlimit:2;">
    <g id="listener">
        <g transform="matrix(6.12323e-17,1,-1,6.12323e-17,15.9584,1.05345)">
            <path d="M1.614,4.355C2.592,2.368 4.637,1 7,1C9.331,1 11.353,2.332 12.346,4.276L11.453,4.725C10.624,3.108 8.94,2 7,2C5.034,2 3.332,3.137 2.515,4.789L1.614,4.355ZM3.416,5.223C4.071,3.906 5.431,3 7,3C8.55,3 9.895,3.883 10.559,5.174L9.665,5.623C9.166,4.659 8.159,4 7,4C5.827,4 4.811,4.675 4.317,5.656L3.416,5.223ZM5.219,6.09C5.55,5.443 6.224,5 7,5C7.769,5 8.437,5.435 8.772,6.072L7.878,6.521C7.708,6.211 7.378,6 7,6C6.62,6 6.29,6.212 6.12,6.524L5.219,6.09Z" style="fill:white;"/>
        </g>
        <circle cx="8" cy="8" r="1" style="fill:white;"/>
        <g transform="matrix(6.12323e-17,-1,1,6.12323e-17,0.0292235,15.0135)">
            <path d="M1.614,4.355C2.592,2.368 4.637,1 7,1C9.331,1 11.353,2.332 12.346,4.276L11.453,4.725C10.624,3.108 8.94,2 7,2C5.034,2 3.332,3.137 2.515,4.789L1.614,4.355ZM3.416,5.223C4.071,3.906 5.431,3 7,3C8.55,3 9.895,3.883 10.559,5.174L9.665,5.623C9.166,4.659 8.159,4 7,4C5.827,4 4.811,4.675 4.317,5.656L3.416,5.223ZM5.219,6.09C5.55,5.443 6.224,5 7,5C7.769,5 8.437,5.435 8.772,6.072L7.878,6.521C7.708,6.211 7.378,6 7,6C6.62,6 6.29,6.212 6.12,6.524L5.219,6.09Z" style="fill:white;"/>
        </g>
    </g>
</svg>
