<?xml version="1.0" encoding="UTF-8" standalone="no"?>
<!DOCTYPE svg PUBLIC "-//W3C//DTD SVG 1.1//EN" "http://www.w3.org/Graphics/SVG/1.1/DTD/svg11.dtd">
<svg width="100%" height="100%" viewBox="0 0 16 16" version="1.1" xmlns="http://www.w3.org/2000/svg" xmlns:xlink="http://www.w3.org/1999/xlink" xml:space="preserve" xmlns:serif="http://www.serif.com/" style="fill-rule:evenodd;clip-rule:evenodd;stroke-linejoin:round;stroke-miterlimit:2;">
    <g id="objective">
        <ellipse cx="8" cy="10" rx="3" ry="1" style="fill:white;"/>
        <g transform="matrix(1,0,0,1,0,0.194002)">
            <path d="M8,7.743C9.707,7.743 11.22,8.082 12.158,8.594C12.868,8.981 13.257,9.483 13.257,10C13.257,10.517 12.868,11.019 12.158,11.406C11.22,11.918 9.707,12.257 8,12.257C6.293,12.257 4.78,11.918 3.842,11.406C3.132,11.019 2.743,10.517 2.743,10C2.743,9.483 3.132,8.981 3.842,8.594C4.78,8.082 6.293,7.743 8,7.743ZM8,8C5.24,8 3,8.896 3,10C3,11.104 5.24,12 8,12C10.76,12 13,11.104 13,10C13,8.896 10.76,8 8,8Z" style="fill:white;"/>
        </g>
        <g transform="matrix(1,0,0,1,0,0.529096)">
            <path d="M8,6.743C10.372,6.743 12.475,7.245 13.778,8.007C14.725,8.56 15.257,9.262 15.257,10C15.257,10.738 14.725,11.44 13.778,11.993C12.475,12.755 10.372,13.257 8,13.257C5.628,13.257 3.525,12.755 2.222,11.993C1.275,11.44 0.743,10.738 0.743,10C0.743,9.262 1.275,8.56 2.222,8.007C3.525,7.245 5.628,6.743 8,6.743ZM8,7C4.137,7 1,8.344 1,10C1,11.656 4.137,13 8,13C11.863,13 15,11.656 15,10C15,8.344 11.863,7 8,7Z" style="fill:white;"/>
        </g>
        <g transform="matrix(6.12323e-17,1,-1,6.12323e-17,11.485,-1)">
            <path d="M1.743,4.375L1.743,2.625C1.743,2.483 1.858,2.368 2,2.368L4.243,2.368L4.243,1C4.243,0.896 4.306,0.802 4.402,0.763C4.498,0.723 4.608,0.745 4.682,0.818L7.182,3.318C7.282,3.419 7.282,3.581 7.182,3.682L4.682,6.182C4.608,6.255 4.498,6.277 4.402,6.237C4.306,6.198 4.243,6.104 4.243,6L4.243,4.632L2,4.632C1.858,4.632 1.743,4.517 1.743,4.375ZM2,4.375L4.5,4.375L4.5,6L7,3.5L4.5,1L4.5,2.625L2,2.625L2,4.375Z" style="fill:white;"/>
        </g>
    </g>
</svg>
