<?xml version="1.0" encoding="UTF-8" standalone="no"?>
<!DOCTYPE svg PUBLIC "-//W3C//DTD SVG 1.1//EN" "http://www.w3.org/Graphics/SVG/1.1/DTD/svg11.dtd">
<svg width="100%" height="100%" viewBox="0 0 16 16" version="1.1" xmlns="http://www.w3.org/2000/svg" xmlns:xlink="http://www.w3.org/1999/xlink" xml:space="preserve" xmlns:serif="http://www.serif.com/" style="fill-rule:evenodd;clip-rule:evenodd;stroke-linejoin:round;stroke-miterlimit:2;">
    <g id="parallel">
        <path d="M2,4.025L2,2.975L12.5,2.975L12.5,2L14,3.5L12.5,5L12.5,4.025L2,4.025Z" style="fill:white;"/>
        <g transform="matrix(1,0,0,1,0,4)">
            <path d="M2,4.025L2,2.975L12.5,2.975L12.5,2L14,3.5L12.5,5L12.5,4.025L2,4.025Z" style="fill:white;"/>
        </g>
        <g transform="matrix(1,0,0,1,0,8)">
            <path d="M2,4.025L2,2.975L12.5,2.975L12.5,2L14,3.5L12.5,5L12.5,4.025L2,4.025Z" style="fill:white;"/>
        </g>
    </g>
</svg>
