<?xml version="1.0" encoding="UTF-8" standalone="no"?>
<!DOCTYPE svg PUBLIC "-//W3C//DTD SVG 1.1//EN" "http://www.w3.org/Graphics/SVG/1.1/DTD/svg11.dtd">
<svg width="100%" height="100%" viewBox="0 0 16 16" version="1.1" xmlns="http://www.w3.org/2000/svg" xmlns:xlink="http://www.w3.org/1999/xlink" xml:space="preserve" xmlns:serif="http://www.serif.com/" style="fill-rule:evenodd;clip-rule:evenodd;stroke-linejoin:round;stroke-miterlimit:2;">
    <g id="play">
        <path d="M2,15L1.812,15C1.364,15 1,14.636 1,14.188L1,1.812C1,1.364 1.364,1 1.812,1L4,1L4,3L12,3L12,1L14.188,1C14.636,1 15,1.364 15,1.812L15,14.188C15,14.636 14.636,15 14.188,15L14,15L14,14L13,14L13,15L12,15L12,13L4,13L4,15L3,15L3,14L2,14L2,15ZM14,6L13,6L13,7L14,7L14,6ZM3,4L2,4L2,5L3,5L3,4ZM14,12L13,12L13,13L14,13L14,12ZM14,8L13,8L13,9L14,9L14,8ZM12,4L4,4L4,12L12,12L12,4ZM14,2L13,2L13,3L14,3L14,2ZM3,6L2,6L2,7L3,7L3,6ZM3,8L2,8L2,9L3,9L3,8ZM3,12L2,12L2,13L3,13L3,12ZM14,4L13,4L13,5L14,5L14,4ZM3,10L2,10L2,11L3,11L3,10ZM3,2L2,2L2,3L3,3L3,2ZM14,10L13,10L13,11L14,11L14,10Z" style="fill:white;"/>
        <path d="M10,8L6,11L6,5L10,8Z" style="fill:white;"/>
    </g>
</svg>
