<?xml version="1.0" encoding="UTF-8" standalone="no"?>
<!DOCTYPE svg PUBLIC "-//W3C//DTD SVG 1.1//EN" "http://www.w3.org/Graphics/SVG/1.1/DTD/svg11.dtd">
<svg width="100%" height="100%" viewBox="0 0 16 16" version="1.1" xmlns="http://www.w3.org/2000/svg" xmlns:xlink="http://www.w3.org/1999/xlink" xml:space="preserve" xmlns:serif="http://www.serif.com/" style="fill-rule:evenodd;clip-rule:evenodd;stroke-linejoin:round;stroke-miterlimit:2;">
    <g id="random">
        <g transform="matrix(1,0,0,1,-2,2)">
            <path d="M3.023,3.542C2.962,3.155 3,2.585 3,2.362L6,-0.362C6.875,-0.968 7.286,-1 7.638,-1L15.362,-1C15.714,-1 17.03,-0.672 17.002,0.654L16.999,0.656C17,0.669 17,0.682 17,0.696L17,9.304C17,9.688 14.08,13 13.696,13C13.474,13 13.289,12.993 13.135,12.981C12.822,13.013 12.469,13 12.275,13L3.725,13C3.325,13 3,12.675 3,12.275L3,3.725C3,3.662 3.008,3.601 3.023,3.542ZM4.044,3.206L4,12L12.75,12.11L12.772,3.184L4.044,3.206ZM13.339,3.14L13.339,12.08L16.022,9.243L16.066,0.391L13.339,3.14ZM7,0L3.995,2.661L13.019,2.617L15.662,0L7,0Z" style="fill:white;"/>
        </g>
        <path d="M7,9.5L7,10.5C7,10.776 6.776,11 6.5,11L5.5,11C5.224,11 5,10.776 5,10.5L5,9.5C5,9.224 5.224,9 5.5,9L6.5,9C6.776,9 7,9.224 7,9.5Z" style="fill:white;"/>
        <g transform="matrix(0.188716,0,0,0.804138,11.1199,3.2215)">
            <path d="M7,9.117L7,10.883C7,10.947 6.776,11 6.5,11L5.5,11C5.224,11 5,10.947 5,10.883L5,9.117C5,9.053 5.224,9 5.5,9L6.5,9C6.776,9 7,9.053 7,9.117Z" style="fill:white;"/>
        </g>
        <g transform="matrix(0.188716,0,0,0.804138,11.7548,-0.0369943)">
            <path d="M7,9.117L7,10.883C7,10.947 6.776,11 6.5,11L5.5,11C5.224,11 5,10.947 5,10.883L5,9.117C5,9.053 5.224,9 5.5,9L6.5,9C6.776,9 7,9.053 7,9.117Z" style="fill:white;"/>
        </g>
        <g transform="matrix(0.188716,0,0,0.804138,12.3897,-2.93739)">
            <path d="M7,9.117L7,10.883C7,10.947 6.776,11 6.5,11L5.5,11C5.224,11 5,10.947 5,10.883L5,9.117C5,9.053 5.224,9 5.5,9L6.5,9C6.776,9 7,9.053 7,9.117Z" style="fill:white;"/>
        </g>
        <g transform="matrix(1,0,0,0.229145,-0.15432,1.45184)">
            <path d="M7,9.5L7,10.5C7,10.776 6.949,11 6.885,11L5.115,11C5.051,11 5,10.776 5,10.5L5,9.5C5,9.224 5.051,9 5.115,9L6.885,9C6.949,9 7,9.224 7,9.5Z" style="fill:white;"/>
        </g>
        <g transform="matrix(1,0,0,0.229145,4.02205,0.521905)">
            <path d="M7,9.5L7,10.5C7,10.776 6.949,11 6.885,11L5.115,11C5.051,11 5,10.776 5,10.5L5,9.5C5,9.224 5.051,9 5.115,9L6.885,9C6.949,9 7,9.224 7,9.5Z" style="fill:white;"/>
        </g>
    </g>
</svg>
