<?xml version="1.0" encoding="UTF-8" standalone="no"?>
<!DOCTYPE svg PUBLIC "-//W3C//DTD SVG 1.1//EN" "http://www.w3.org/Graphics/SVG/1.1/DTD/svg11.dtd">
<svg width="100%" height="100%" viewBox="0 0 16 16" version="1.1" xmlns="http://www.w3.org/2000/svg" xmlns:xlink="http://www.w3.org/1999/xlink" xml:space="preserve" xmlns:serif="http://www.serif.com/" style="fill-rule:evenodd;clip-rule:evenodd;stroke-linejoin:round;stroke-miterlimit:2;">
    <g transform="matrix(0.928571,0,0,0.928571,-1.85714,-1.85714)">
        <path d="M2,16L2,4.841C2,3.485 2.952,2.349 4.224,2.067C4.178,2.216 4.154,2.375 4.154,2.538L4.154,5.769C4.154,5.886 4.166,6.001 4.19,6.111C4.43,5.575 4.788,5.103 5.231,4.729L5.231,2.304C5.231,2.136 5.367,2 5.535,2L8.157,2C8.325,2 8.462,2.136 8.462,2.304L8.462,3.818L12.949,3.818C13.258,3.818 13.558,3.854 13.846,3.922L13.846,2.538C13.846,2.375 13.822,2.216 13.776,2.067C14.833,2.302 15.669,3.126 15.922,4.176C15.788,4.161 15.653,4.154 15.516,4.154L7.868,4.154C5.818,4.154 4.154,5.818 4.154,7.868L4.154,15.516C4.154,15.653 4.161,15.788 4.176,15.922C4.168,15.92 4.161,15.918 4.154,15.916L4.154,16L2,16ZM5.231,19.231L5.231,8.071C5.231,6.715 6.183,5.58 7.455,5.298C7.409,5.447 7.385,5.605 7.385,5.769L7.385,9C7.385,9.892 8.108,10.615 9,10.615L15.462,10.615C16.353,10.615 17.077,9.892 17.077,9L17.077,5.769C17.077,5.605 17.052,5.447 17.007,5.298C18.279,5.58 19.231,6.715 19.231,8.071L19.231,19.231L17.077,19.231L17.077,12.605C17.077,12.101 16.668,11.692 16.164,11.692L8.298,11.692C7.794,11.692 7.385,12.101 7.385,12.605L7.385,19.231L5.231,19.231ZM11.692,5.535L11.692,9.234C11.692,9.402 11.556,9.538 11.388,9.538L8.766,9.538C8.598,9.538 8.462,9.402 8.462,9.234L8.462,5.535C8.462,5.367 8.598,5.231 8.766,5.231L11.388,5.231C11.556,5.231 11.692,5.367 11.692,5.535ZM16,13.479L16,20.674C16,21.066 15.682,21.385 15.29,21.385L9.172,21.385C8.78,21.385 8.462,21.066 8.462,20.674L8.462,13.479C8.462,13.087 8.78,12.769 9.172,12.769L15.29,12.769C15.682,12.769 16,13.087 16,13.479Z" style="fill:white;"/>
    </g>
</svg>
