<?xml version="1.0" encoding="UTF-8" standalone="no"?>
<!DOCTYPE svg PUBLIC "-//W3C//DTD SVG 1.1//EN" "http://www.w3.org/Graphics/SVG/1.1/DTD/svg11.dtd">
<svg width="100%" height="100%" viewBox="0 0 16 16" version="1.1" xmlns="http://www.w3.org/2000/svg" xmlns:xlink="http://www.w3.org/1999/xlink" xml:space="preserve" xmlns:serif="http://www.serif.com/" style="fill-rule:evenodd;clip-rule:evenodd;stroke-linejoin:round;stroke-miterlimit:2;">
    <path id="Ebene1" d="M10.881,12.684C10.677,13.979 9.556,14.97 8.205,14.97L2.787,14.97C1.291,14.97 0.078,13.756 0.078,12.261L0.078,2.54C0.078,1.045 0.29,0.818 1.785,0.818L9.206,0.818C10.701,0.818 10.914,1.045 10.914,2.54L10.914,3.894L13.647,3.894C14.615,3.894 15.4,4.68 15.4,5.647L15.4,10.931C15.4,11.899 14.615,12.684 13.647,12.684L10.881,12.684ZM13.496,5.743L10.772,5.743L10.772,10.54L13.496,10.54L13.496,5.743ZM5.03,5.906C4.338,4.557 2.954,4.557 2.262,5.232C1.569,5.906 1.569,7.255 2.262,8.604C2.746,9.616 3.992,10.627 5.03,11.302C6.068,10.627 7.314,9.616 7.798,8.604C8.491,7.255 8.491,5.906 7.798,5.232C7.106,4.557 5.722,4.557 5.03,5.906Z" style="fill:white;"/>
</svg>
