<?xml version="1.0" encoding="UTF-8" standalone="no"?>
<!DOCTYPE svg PUBLIC "-//W3C//DTD SVG 1.1//EN" "http://www.w3.org/Graphics/SVG/1.1/DTD/svg11.dtd">
<svg width="100%" height="100%" viewBox="0 0 16 16" version="1.1" xmlns="http://www.w3.org/2000/svg" xmlns:xlink="http://www.w3.org/1999/xlink" xml:space="preserve" xmlns:serif="http://www.serif.com/" style="fill-rule:evenodd;clip-rule:evenodd;stroke-linejoin:round;stroke-miterlimit:2;">
    <g id="start_scope">
        <path d="M4,6L4,2C4,1.448 4.448,1 5,1L14,1C14.552,1 15,1.448 15,2L15,14C15,14.552 14.552,15 14,15L5,15C4.448,15 4,14.552 4,14L4,10L5,10L5,14L14,14L14,2L5,2L5,6L4,6Z" style="fill:white;"/>
        <path d="M-1,8.7L-1,10L-3,8L-1,6L-1,7.3L8,7.3L8,6L10,8L8,10L8,8.7L-1,8.7Z" style="fill:white;"/>
    </g>
</svg>
