<?xml version="1.0" encoding="UTF-8" standalone="no"?>
<!DOCTYPE svg PUBLIC "-//W3C//DTD SVG 1.1//EN" "http://www.w3.org/Graphics/SVG/1.1/DTD/svg11.dtd">
<svg width="100%" height="100%" viewBox="0 0 16 16" version="1.1" xmlns="http://www.w3.org/2000/svg" xmlns:xlink="http://www.w3.org/1999/xlink" xml:space="preserve" xmlns:serif="http://www.serif.com/" style="fill-rule:evenodd;clip-rule:evenodd;stroke-linejoin:round;stroke-miterlimit:2;">
    <g id="text">
        <g transform="matrix(0.986414,0,0,1.17231,-0.475718,-0.0560888)">
            <path d="M1.495,1.765L9.608,1.765L9.608,4.374L8.873,4.374C8.763,3.944 8.655,3.604 8.547,3.354C8.44,3.105 8.326,2.915 8.206,2.785C8.086,2.655 7.957,2.562 7.82,2.507C7.682,2.452 7.476,2.425 7.201,2.425L6.249,2.425L6.249,10.103C6.249,10.398 6.265,10.633 6.298,10.808C6.33,10.983 6.38,11.121 6.448,11.224C6.515,11.326 6.606,11.406 6.721,11.464C6.836,11.521 7.016,11.578 7.261,11.633L7.261,12L3.834,12L3.834,11.633C3.984,11.598 4.117,11.56 4.232,11.52C4.347,11.48 4.44,11.431 4.513,11.374C4.585,11.316 4.645,11.243 4.693,11.153C4.74,11.063 4.778,10.94 4.805,10.785C4.833,10.63 4.847,10.403 4.847,10.103L4.847,2.425L3.902,2.425C3.667,2.425 3.473,2.447 3.321,2.492C3.168,2.537 3.027,2.631 2.897,2.773C2.767,2.916 2.648,3.118 2.541,3.381C2.433,3.643 2.332,3.974 2.237,4.374L1.495,4.374L1.495,1.765Z" style="fill:white;fill-rule:nonzero;"/>
        </g>
        <path d="M15,12L15,13C15,13.552 14.552,14 14,14L9,14C8.448,14 8,13.552 8,13L8,12L9,12L9,13L14,13L14,12L15,12Z" style="fill:white;"/>
    </g>
</svg>
