<?xml version="1.0" encoding="UTF-8" standalone="no"?>
<!DOCTYPE svg PUBLIC "-//W3C//DTD SVG 1.1//EN" "http://www.w3.org/Graphics/SVG/1.1/DTD/svg11.dtd">
<svg width="100%" height="100%" viewBox="0 0 16 16" version="1.1" xmlns="http://www.w3.org/2000/svg" xmlns:xlink="http://www.w3.org/1999/xlink" xml:space="preserve" xmlns:serif="http://www.serif.com/" style="fill-rule:evenodd;clip-rule:evenodd;stroke-linejoin:round;stroke-miterlimit:2;">
    <g id="ui_message">
        <path d="M15,1.913L15,14.087C15,14.591 14.591,15 14.087,15L1.913,15C1.409,15 1,14.591 1,14.087L1,1.913C1,1.409 1.409,1 1.913,1L14.087,1C14.591,1 15,1.409 15,1.913ZM14,3.717C14,3.321 13.679,3 13.283,3L2.717,3C2.321,3 2,3.321 2,3.717L2,13.283C2,13.679 2.321,14 2.717,14L13.283,14C13.679,14 14,13.679 14,13.283L14,3.717Z" style="fill:white;"/>
        <path d="M7,4.25L7,4.75C7,4.888 6.888,5 6.75,5L3.25,5C3.112,5 3,4.888 3,4.75L3,4.25C3,4.112 3.112,4 3.25,4L6.75,4C6.888,4 7,4.112 7,4.25Z" style="fill:white;"/>
        <path d="M10,4.25L10,4.75C10,4.888 9.888,5 9.75,5L8.25,5C8.112,5 8,4.888 8,4.75L8,4.25C8,4.112 8.112,4 8.25,4L9.75,4C9.888,4 10,4.112 10,4.25Z" style="fill:white;"/>
        <path d="M13,6.25L13,6.75C13,6.888 12.888,7 12.75,7L3.25,7C3.112,7 3,6.888 3,6.75L3,6.25C3,6.112 3.112,6 3.25,6L12.75,6C12.888,6 13,6.112 13,6.25Z" style="fill:white;"/>
        <path d="M9,8.25L9,8.75C9,8.888 8.888,9 8.75,9L3.25,9C3.112,9 3,8.888 3,8.75L3,8.25C3,8.112 3.112,8 3.25,8L8.75,8C8.888,8 9,8.112 9,8.25Z" style="fill:white;"/>
        <path d="M13,8.25L13,8.75C13,8.888 12.888,9 12.75,9L10.25,9C10.112,9 10,8.888 10,8.75L10,8.25C10,8.112 10.112,8 10.25,8L12.75,8C12.888,8 13,8.112 13,8.25Z" style="fill:white;"/>
        <path d="M13,10.25L13,10.75C13,10.888 12.888,11 12.75,11L3.25,11C3.112,11 3,10.888 3,10.75L3,10.25C3,10.112 3.112,10 3.25,10L12.75,10C12.888,10 13,10.112 13,10.25Z" style="fill:white;"/>
    </g>
</svg>
